<svg id="Layer_1" data-name="Layer 1" xmlns="http://www.w3.org/2000/svg" viewBox="0 0 502.77 228.13"><defs><style>.cls-1{fill:#f1f5f9;}</style></defs><title>logo full white</title><path class="cls-1" d="M251.21,59.44a15.34,15.34,0,0,1,7.68-1.83v9.21h-2.26q-5.24,0-7.92,2.65c-1.8,1.77-2.69,4.84-2.69,9.21V101.3h-8.9v-43H246v6.24A14.05,14.05,0,0,1,251.21,59.44Z" transform="translate(0.22 -0.7)"/><path class="cls-1" d="M305.86,83.12H273a12,12,0,0,0,3.82,8.27,12.08,12.08,0,0,0,8.43,3.12q7.19,0,10.14-6H305a19.34,19.34,0,0,1-7.06,9.71A20.73,20.73,0,0,1,285.26,102a21.92,21.92,0,0,1-11-2.77,19.66,19.66,0,0,1-7.65-7.8,23.84,23.84,0,0,1-2.76-11.66A24.34,24.34,0,0,1,266.5,68.1a18.91,18.91,0,0,1,7.56-7.76,22.55,22.55,0,0,1,11.2-2.73,21.91,21.91,0,0,1,10.85,2.65,18.77,18.77,0,0,1,7.41,7.45,22.43,22.43,0,0,1,2.65,11A27.53,27.53,0,0,1,305.86,83.12Zm-9-7.18a10.19,10.19,0,0,0-3.51-7.88,12.6,12.6,0,0,0-8.51-3A11.44,11.44,0,0,0,277,68a12.26,12.26,0,0,0-3.9,7.91Z" transform="translate(0.22 -0.7)"/><path class="cls-1" d="M314.32,68.1a19.22,19.22,0,0,1,7.45-7.76,21.6,21.6,0,0,1,10.93-2.73q7.8,0,12.91,3.71a18.24,18.24,0,0,1,6.91,10.57h-9.6a10.18,10.18,0,0,0-3.75-5,11.07,11.07,0,0,0-6.47-1.79A10.79,10.79,0,0,0,324,69q-3.24,3.87-3.24,10.81T324,90.61a10.73,10.73,0,0,0,8.7,3.9q7.73,0,10.22-6.78h9.6a19.2,19.2,0,0,1-7,10.41A20.68,20.68,0,0,1,332.7,102a21.32,21.32,0,0,1-10.93-2.77,19.39,19.39,0,0,1-7.45-7.8,24.38,24.38,0,0,1-2.69-11.66A24.45,24.45,0,0,1,314.32,68.1Z" transform="translate(0.22 -0.7)"/><path class="cls-1" d="M368.74,99.23a19.83,19.83,0,0,1-7.72-7.8,23.54,23.54,0,0,1-2.81-11.66,23,23,0,0,1,2.89-11.63,19.9,19.9,0,0,1,7.88-7.8,24.16,24.16,0,0,1,22.31,0,19.9,19.9,0,0,1,7.88,7.8,23.15,23.15,0,0,1,2.89,11.63,22.55,22.55,0,0,1-3,11.62A20.48,20.48,0,0,1,391,99.23,23.27,23.27,0,0,1,379.74,102,22,22,0,0,1,368.74,99.23Zm17.44-6.59a12.52,12.52,0,0,0,4.88-4.91,15.81,15.81,0,0,0,1.87-8,16.1,16.1,0,0,0-1.8-7.92A12.08,12.08,0,0,0,386.38,67a13.06,13.06,0,0,0-6.4-1.64A12.82,12.82,0,0,0,373.62,67,11.66,11.66,0,0,0,369,71.85a16.68,16.68,0,0,0-1.72,7.92q0,6.95,3.55,10.73a11.73,11.73,0,0,0,8.93,3.78A13.26,13.26,0,0,0,386.18,92.64Z" transform="translate(0.22 -0.7)"/><path class="cls-1" d="M410.29,68.14A19.61,19.61,0,0,1,428,57.61a20.19,20.19,0,0,1,8.31,1.83,17,17,0,0,1,6.51,4.88V43.57h9V101.3h-9V94.83a16.7,16.7,0,0,1-6,5.15,18.82,18.82,0,0,1-8.86,2,19.25,19.25,0,0,1-10.26-2.84,20.09,20.09,0,0,1-7.33-8,24.43,24.43,0,0,1-2.69-11.59A23.75,23.75,0,0,1,410.29,68.14ZM441,72a12.89,12.89,0,0,0-4.8-5,12.59,12.59,0,0,0-6.4-1.72,12.62,12.62,0,0,0-11.19,6.6,15.37,15.37,0,0,0-1.83,7.68,16,16,0,0,0,1.83,7.8,12.85,12.85,0,0,0,4.84,5.11,12.55,12.55,0,0,0,12.75,0,12.74,12.74,0,0,0,4.8-5,15.81,15.81,0,0,0,1.83-7.76A15.61,15.61,0,0,0,441,72Z" transform="translate(0.22 -0.7)"/><path class="cls-1" d="M502.24,83.12H469.39a11.9,11.9,0,0,0,3.82,8.27,12.08,12.08,0,0,0,8.43,3.12q7.17,0,10.14-6h9.6a19.39,19.39,0,0,1-7.06,9.71A20.75,20.75,0,0,1,481.64,102a21.92,21.92,0,0,1-11-2.77,19.66,19.66,0,0,1-7.65-7.8,23.85,23.85,0,0,1-2.77-11.66,24.45,24.45,0,0,1,2.69-11.67,19,19,0,0,1,7.57-7.76,22.55,22.55,0,0,1,11.2-2.73,21.84,21.84,0,0,1,10.84,2.65,18.73,18.73,0,0,1,7.42,7.45,22.54,22.54,0,0,1,2.65,11A28.76,28.76,0,0,1,502.24,83.12Zm-9-7.18a10.13,10.13,0,0,0-3.51-7.88,12.57,12.57,0,0,0-8.5-3A11.42,11.42,0,0,0,473.37,68a12.17,12.17,0,0,0-3.9,7.91Z" transform="translate(0.22 -0.7)"/><path class="cls-1" d="M252.22,129.07a19.15,19.15,0,0,1,8.78-2,19.83,19.83,0,0,1,10.3,2.73,19.25,19.25,0,0,1,7.25,7.77,24.26,24.26,0,0,1,2.65,11.5,24.77,24.77,0,0,1-2.65,11.59,19.85,19.85,0,0,1-7.29,8A19.25,19.25,0,0,1,261,171.48a19.55,19.55,0,0,1-8.86-1.95,17,17,0,0,1-6.12-5v6.24h-8.9V113H246v21.14A16.81,16.81,0,0,1,252.22,129.07Zm18.1,12.33a12.59,12.59,0,0,0-4.84-4.92,13,13,0,0,0-6.43-1.67,12.65,12.65,0,0,0-6.36,1.71,12.81,12.81,0,0,0-4.84,5,15.55,15.55,0,0,0-1.83,7.72,15.81,15.81,0,0,0,1.83,7.76,12.79,12.79,0,0,0,4.84,5,12.65,12.65,0,0,0,6.36,1.71,12.51,12.51,0,0,0,6.43-1.75,13,13,0,0,0,4.84-5.11,16.07,16.07,0,0,0,1.83-7.81A15.37,15.37,0,0,0,270.32,141.4Z" transform="translate(0.22 -0.7)"/><path class="cls-1" d="M303.79,128.92a15.28,15.28,0,0,1,7.69-1.84v9.21h-2.27q-5.22,0-7.92,2.65t-2.69,9.21v22.62h-8.89v-43h8.89V134A13.9,13.9,0,0,1,303.79,128.92Z" transform="translate(0.22 -0.7)"/><path class="cls-1" d="M319.08,137.61a19.63,19.63,0,0,1,17.6-10.53,18.7,18.7,0,0,1,8.85,2,18,18,0,0,1,6.05,5v-6.25h9v43h-9v-6.39a17.85,17.85,0,0,1-6.16,5.07,19.94,19.94,0,0,1-19-.82,20.23,20.23,0,0,1-7.3-8,24.55,24.55,0,0,1-2.69-11.59A23.87,23.87,0,0,1,319.08,137.61Zm30.67,3.91a13,13,0,0,0-4.8-5,12.6,12.6,0,0,0-6.4-1.71,12.87,12.87,0,0,0-6.4,1.67,12.63,12.63,0,0,0-4.8,4.92,15.37,15.37,0,0,0-1.83,7.68,16.07,16.07,0,0,0,1.83,7.81,13,13,0,0,0,4.84,5.11,12.39,12.39,0,0,0,6.36,1.75A12.6,12.6,0,0,0,345,162a13,13,0,0,0,4.8-5,15.81,15.81,0,0,0,1.83-7.76A15.55,15.55,0,0,0,349.75,141.52Z" transform="translate(0.22 -0.7)"/><path class="cls-1" d="M372.41,120.45a5.7,5.7,0,0,1,4.06-9.75,5.4,5.4,0,0,1,4,1.64,5.71,5.71,0,0,1-8,8.11Zm8.43,7.33v43h-8.9v-43Z" transform="translate(0.22 -0.7)"/><path class="cls-1" d="M423,129.19a14.93,14.93,0,0,1,6.28,6.24,20.54,20.54,0,0,1,2.26,10v25.35h-8.82v-24q0-5.78-2.88-8.85a10.27,10.27,0,0,0-7.88-3.08,10.38,10.38,0,0,0-7.92,3.08q-2.93,3.08-2.93,8.85v24h-8.89v-43h8.89v4.92a14.79,14.79,0,0,1,5.58-4.14,18,18,0,0,1,7.22-1.48A19.22,19.22,0,0,1,423,129.19Z" transform="translate(0.22 -0.7)"/><g id="dark_logo" data-name="dark logo"><path class="cls-1" d="M55.35,101c0-3.87-1.36-6.71-4-8.46s-5.7-2.07-9.42-1.23L30.18,93.88v20.3l11.76-.25a13.85,13.85,0,0,0,9.42-3.58A12.29,12.29,0,0,0,55.35,101Z" transform="translate(0.22 -0.7)"/><path class="cls-1" d="M16.05,75.71v82.44l61.82,35.68V39.92ZM55,152,40.13,121l-10-.42v24.38l-6.51-1.85V89.38l18.27-5.24a27,27,0,0,1,12.21-.92,16.55,16.55,0,0,1,9.73,5.13,16,16,0,0,1,3.84,11.09,19.84,19.84,0,0,1-5.41,13.85,24,24,0,0,1-12.74,7.15L69.2,156.07Z" transform="translate(0.22 -0.7)"/><path class="cls-1" d="M165.62,115.3a11.33,11.33,0,0,0,6.65-3.92,10.87,10.87,0,0,0,2.25-7,14.86,14.86,0,0,0-4.47-10.84c-3.19-3.25-7.86-5.67-14.33-7.26L129.92,80v74l27.2-6.65c6.4-1.56,11-4.07,14.19-7.51a16.19,16.19,0,0,0,4.44-11.44,13,13,0,0,0-2.57-8.3A13.48,13.48,0,0,0,165.62,115.3ZM143,91.2l12.74,2.37A15.38,15.38,0,0,1,164,97.42a9,9,0,0,1,2.77,6.7,7.06,7.06,0,0,1-2.77,6c-1.92,1.46-4.66,2.14-8.34,2L143,111.65ZM165.19,136c-2.06,2.05-5,3.45-9,4.19L143,142.66V119.42l13.24-.24c4-.07,6.91.83,9,2.64a8.81,8.81,0,0,1,3,7A9.72,9.72,0,0,1,165.19,136Z" transform="translate(0.22 -0.7)"/><path class="cls-1" d="M193.72,52,108.46,2.79a15.62,15.62,0,0,0-15.62,0L-.22,56.52V173l93.06,53.73a15.62,15.62,0,0,0,15.62,0l85.26-49.22A15.61,15.61,0,0,0,201.53,164V65.54A15.63,15.63,0,0,0,193.72,52ZM94.14,222.14,89.8,220,5.2,171.16V60.53l85.69-49.9,3.25-2.17Zm89-67.21a8.2,8.2,0,0,1-4.29,7.2l-45.46,24.73a8.2,8.2,0,0,1-12.12-7.18l-.37-123.4a8.2,8.2,0,0,1,12.23-7.16L178.92,75a8.23,8.23,0,0,1,4.17,7.14Z" transform="translate(0.22 -0.7)"/></g></svg>