<svg id="Layer_1" data-name="Layer 1" xmlns="http://www.w3.org/2000/svg" viewBox="0 0 502.77 228.13"><defs><style>.cls-1{fill:#02307b;}</style></defs><title>logo full blue</title><path class="cls-1" d="M251.43,58.75a15.38,15.38,0,0,1,7.69-1.84v9.21h-2.27c-3.48,0-6.12.89-7.92,2.65s-2.69,4.84-2.69,9.21v22.63h-8.89v-43h8.89v6.24A13.9,13.9,0,0,1,251.43,58.75Z" transform="translate(0 0)"/><path class="cls-1" d="M306.08,82.43H273.24a11.92,11.92,0,0,0,3.82,8.27,12.08,12.08,0,0,0,8.43,3.12q7.17,0,10.14-6h9.59a19.34,19.34,0,0,1-7.06,9.71,20.64,20.64,0,0,1-12.67,3.79,21.92,21.92,0,0,1-11-2.77,19.66,19.66,0,0,1-7.65-7.8A23.8,23.8,0,0,1,264,79.07a24.38,24.38,0,0,1,2.69-11.66,19,19,0,0,1,7.57-7.77,22.52,22.52,0,0,1,11.2-2.73,21.87,21.87,0,0,1,10.84,2.66A18.77,18.77,0,0,1,303.74,67a22.43,22.43,0,0,1,2.66,11A27.55,27.55,0,0,1,306.08,82.43Zm-9-7.18a10.11,10.11,0,0,0-3.51-7.88,12.53,12.53,0,0,0-8.5-3,11.42,11.42,0,0,0-7.88,2.93,12.23,12.23,0,0,0-3.91,7.92Z" transform="translate(0 0)"/><path class="cls-1" d="M314.55,67.41A19.18,19.18,0,0,1,322,59.64a21.54,21.54,0,0,1,10.92-2.73q7.8,0,12.91,3.71a18.27,18.27,0,0,1,6.91,10.57h-9.6a10.2,10.2,0,0,0-3.74-5,11.06,11.06,0,0,0-6.48-1.8,10.76,10.76,0,0,0-8.7,3.87Q321,72.13,321,79.07t3.24,10.85a10.73,10.73,0,0,0,8.7,3.9q7.72,0,10.22-6.79h9.6a19.26,19.26,0,0,1-7,10.42,20.77,20.77,0,0,1-12.8,3.86A21.26,21.26,0,0,1,322,98.54a19.45,19.45,0,0,1-7.45-7.8,24.34,24.34,0,0,1-2.69-11.67A24.27,24.27,0,0,1,314.55,67.41Z" transform="translate(0 0)"/><path class="cls-1" d="M369,98.54a20,20,0,0,1-7.73-7.8,23.6,23.6,0,0,1-2.81-11.67,23.11,23.11,0,0,1,2.89-11.62,20,20,0,0,1,7.88-7.81,24.16,24.16,0,0,1,22.31,0,20,20,0,0,1,7.88,7.81,23,23,0,0,1,2.89,11.62,22.68,22.68,0,0,1-3,11.63,20.57,20.57,0,0,1-8.08,7.84A23.23,23.23,0,0,1,380,101.31,22,22,0,0,1,369,98.54ZM386.4,92A12.55,12.55,0,0,0,391.28,87a15.78,15.78,0,0,0,1.87-8,16.21,16.21,0,0,0-1.79-7.92,12.08,12.08,0,0,0-4.76-4.87,13,13,0,0,0-6.4-1.64,12.72,12.72,0,0,0-6.36,1.64,11.63,11.63,0,0,0-4.64,4.87,16.8,16.8,0,0,0-1.72,7.92q0,6.95,3.55,10.73A11.75,11.75,0,0,0,380,93.58,13.22,13.22,0,0,0,386.4,92Z" transform="translate(0 0)"/><path class="cls-1" d="M410.51,67.45a19.62,19.62,0,0,1,17.67-10.54,20.2,20.2,0,0,1,8.31,1.84A17.06,17.06,0,0,1,443,63.62V42.87h9v57.74h-9V94.13A16.63,16.63,0,0,1,437,99.28a18.78,18.78,0,0,1-8.85,2,19.2,19.2,0,0,1-10.26-2.85,20.11,20.11,0,0,1-7.34-8,24.51,24.51,0,0,1-2.69-11.58A23.84,23.84,0,0,1,410.51,67.45Zm30.67,3.9a13,13,0,0,0-4.8-5,12.6,12.6,0,0,0-6.4-1.71,12.78,12.78,0,0,0-6.4,1.68,12.54,12.54,0,0,0-4.8,4.91A15.38,15.38,0,0,0,417,78.92a16.05,16.05,0,0,0,1.83,7.8,12.92,12.92,0,0,0,4.84,5.11A12.39,12.39,0,0,0,430,93.58a12.6,12.6,0,0,0,6.4-1.71,12.94,12.94,0,0,0,4.8-5A15.85,15.85,0,0,0,443,79.07,15.58,15.58,0,0,0,441.18,71.35Z" transform="translate(0 0)"/><path class="cls-1" d="M502.46,82.43H469.61a11.93,11.93,0,0,0,3.83,8.27,12.05,12.05,0,0,0,8.42,3.12q7.18,0,10.15-6h9.59a19.34,19.34,0,0,1-7.06,9.71,20.67,20.67,0,0,1-12.68,3.79,21.92,21.92,0,0,1-11-2.77,19.7,19.7,0,0,1-7.64-7.8,23.8,23.8,0,0,1-2.77-11.67,24.27,24.27,0,0,1,2.69-11.66,19,19,0,0,1,7.57-7.77,22.51,22.51,0,0,1,11.19-2.73,21.89,21.89,0,0,1,10.85,2.66A18.77,18.77,0,0,1,500.12,67a22.43,22.43,0,0,1,2.65,11A27.62,27.62,0,0,1,502.46,82.43Zm-9-7.18A10.11,10.11,0,0,0,490,67.37a12.56,12.56,0,0,0-8.51-3,11.44,11.44,0,0,0-7.88,2.93,12.26,12.26,0,0,0-3.9,7.92Z" transform="translate(0 0)"/><path class="cls-1" d="M252.44,128.37a19.31,19.31,0,0,1,8.78-2,19.81,19.81,0,0,1,10.3,2.73,19.24,19.24,0,0,1,7.26,7.76,24.39,24.39,0,0,1,2.65,11.51A24.82,24.82,0,0,1,278.78,160a19.81,19.81,0,0,1-7.3,8,20.41,20.41,0,0,1-19.11.9,17.09,17.09,0,0,1-6.13-5v6.24h-8.89V112.34h8.89v21.15A17,17,0,0,1,252.44,128.37Zm18.11,12.33a12.63,12.63,0,0,0-4.84-4.91,13,13,0,0,0-6.44-1.68,12.56,12.56,0,0,0-6.36,1.72,12.76,12.76,0,0,0-4.83,5,15.47,15.47,0,0,0-1.84,7.72,15.72,15.72,0,0,0,1.84,7.77,12.65,12.65,0,0,0,17.63,5,13,13,0,0,0,4.84-5.11,16.05,16.05,0,0,0,1.83-7.8A15.38,15.38,0,0,0,270.55,140.7Z" transform="translate(0 0)"/><path class="cls-1" d="M304,128.22a15.34,15.34,0,0,1,7.68-1.83v9.2h-2.26c-3.49,0-6.13.89-7.92,2.65s-2.69,4.84-2.69,9.21v22.63h-8.9v-43h8.9v6.24A14,14,0,0,1,304,128.22Z" transform="translate(0 0)"/><path class="cls-1" d="M319.31,136.92a19.56,19.56,0,0,1,17.59-10.53,18.88,18.88,0,0,1,8.86,2,18,18,0,0,1,6,5v-6.24h9v43h-9v-6.4a17.63,17.63,0,0,1-6.16,5.07,19.94,19.94,0,0,1-19-.82,20.14,20.14,0,0,1-7.29-8,24.36,24.36,0,0,1-2.69-11.58A23.73,23.73,0,0,1,319.31,136.92Zm30.66,3.9a12.83,12.83,0,0,0-4.8-5,12.51,12.51,0,0,0-6.4-1.72,12.64,12.64,0,0,0-11.19,6.59,15.28,15.28,0,0,0-1.84,7.69,16,16,0,0,0,1.84,7.8,12.85,12.85,0,0,0,4.84,5.11,12.4,12.4,0,0,0,6.35,1.76,12.59,12.59,0,0,0,11.2-6.75,15.83,15.83,0,0,0,1.83-7.77A15.58,15.58,0,0,0,350,140.82Z" transform="translate(0 0)"/><path class="cls-1" d="M372.63,119.75a5.7,5.7,0,0,1,4.06-9.75,5.43,5.43,0,0,1,4,1.64,5.83,5.83,0,0,1,0,8.11,5.39,5.39,0,0,1-4,1.64A5.5,5.5,0,0,1,372.63,119.75Zm8.43,7.34v43h-8.89v-43Z" transform="translate(0 0)"/><path class="cls-1" d="M423.23,128.49a15,15,0,0,1,6.28,6.24,20.54,20.54,0,0,1,2.26,10v25.36H423v-24q0-5.78-2.89-8.86a10.28,10.28,0,0,0-7.88-3.08,10.42,10.42,0,0,0-7.92,3.08q-2.92,3.09-2.92,8.86v24h-8.9v-43h8.9V132a14.76,14.76,0,0,1,5.57-4.13,17.84,17.84,0,0,1,7.22-1.48A19.34,19.34,0,0,1,423.23,128.49Z" transform="translate(0 0)"/><g id="dark_logo" data-name="dark logo"><path class="cls-1" d="M55.57,100.26c0-3.87-1.36-6.71-4-8.47s-5.7-2.06-9.43-1.23L30.4,93.19v20.3l11.76-.25a13.82,13.82,0,0,0,9.43-3.59A12.31,12.31,0,0,0,55.57,100.26Z" transform="translate(0 0)"/><path class="cls-1" d="M16.27,75v82.43L78.1,193.14V39.22Zm38.94,76.3-14.85-31-10-.42v24.39l-6.51-1.86V88.69l18.27-5.25a27,27,0,0,1,12.21-.92,16.55,16.55,0,0,1,9.74,5.13,16.1,16.1,0,0,1,3.83,11.1,19.88,19.88,0,0,1-5.4,13.85,24.14,24.14,0,0,1-12.74,7.14l19.62,35.64Z" transform="translate(0 0)"/><path class="cls-1" d="M165.84,114.6a11.39,11.39,0,0,0,6.66-3.92,10.88,10.88,0,0,0,2.24-7,14.82,14.82,0,0,0-4.47-10.84c-3.19-3.25-7.85-5.68-14.33-7.26l-25.8-6.3V153.2l27.21-6.64c6.39-1.56,11-4.08,14.18-7.52A16.16,16.16,0,0,0,176,127.6a13.06,13.06,0,0,0-2.56-8.3A13.6,13.6,0,0,0,165.84,114.6ZM143.21,90.5l12.73,2.37a15.42,15.42,0,0,1,8.25,3.85,9,9,0,0,1,2.76,6.71,7.1,7.1,0,0,1-2.76,6c-1.92,1.46-4.67,2.14-8.35,2L143.21,111Zm22.2,44.8c-2.06,2.06-5,3.46-9,4.2L143.21,142V118.73l13.24-.24c4-.07,6.9.82,9,2.63a8.82,8.82,0,0,1,3,7A9.71,9.71,0,0,1,165.41,135.3Z" transform="translate(0 0)"/><path class="cls-1" d="M193.94,51.32,108.68,2.09a15.6,15.6,0,0,0-15.61,0L0,55.82V172.31L93.07,226a15.6,15.6,0,0,0,15.61,0l85.26-49.23a15.61,15.61,0,0,0,7.81-13.52V64.84A15.61,15.61,0,0,0,193.94,51.32ZM94.37,221.45,90,219.28,5.42,170.47V59.83L91.11,9.94l3.26-2.17Zm88.94-67.22a8.21,8.21,0,0,1-4.28,7.21l-45.47,24.72A8.2,8.2,0,0,1,121.44,179l-.37-123.39a8.21,8.21,0,0,1,12.24-7.17l45.83,25.9a8.18,8.18,0,0,1,4.17,7.14Z" transform="translate(0 0)"/></g></svg>