<svg id="Layer_1" data-name="Layer 1" xmlns="http://www.w3.org/2000/svg" viewBox="0 0 660.9 145"><defs><style>.cls-1{fill:#f1f5f9;}</style></defs><title>logo full white v2</title><path class="cls-1" d="M159.26,52.35a16.3,16.3,0,0,1,8.13-1.94v9.74H165q-5.53,0-8.38,2.8t-2.84,9.74V96.63h-9.41V51.15h9.41v6.6A14.71,14.71,0,0,1,159.26,52.35Z"/><path class="cls-1" d="M217.08,77.4H182.33a12.55,12.55,0,0,0,13,12q7.59,0,10.73-6.36h10.15a20.44,20.44,0,0,1-7.46,10.28,21.94,21.94,0,0,1-13.42,4,23.16,23.16,0,0,1-11.68-2.93,20.85,20.85,0,0,1-8.09-8.25,25.21,25.21,0,0,1-2.93-12.34,25.75,25.75,0,0,1,2.85-12.34,20,20,0,0,1,8-8.21,23.79,23.79,0,0,1,11.84-2.89,23.21,23.21,0,0,1,11.48,2.8,19.9,19.9,0,0,1,7.84,7.89,23.72,23.72,0,0,1,2.8,11.68A29.5,29.5,0,0,1,217.08,77.4Zm-9.49-7.59a10.69,10.69,0,0,0-3.71-8.34,13.31,13.31,0,0,0-9-3.14,12.06,12.06,0,0,0-8.34,3.1,12.91,12.91,0,0,0-4.12,8.38Z"/><path class="cls-1" d="M226,61.51a20.19,20.19,0,0,1,7.88-8.21,22.78,22.78,0,0,1,11.56-2.89q8.25,0,13.66,3.92a19.27,19.27,0,0,1,7.3,11.18H256.29a10.78,10.78,0,0,0-4-5.28,11.75,11.75,0,0,0-6.85-1.9,11.4,11.4,0,0,0-9.21,4.09q-3.42,4.08-3.42,11.43t3.42,11.47a11.37,11.37,0,0,0,9.21,4.13q8.16,0,10.81-7.18h10.15a20.31,20.31,0,0,1-7.43,11,21.93,21.93,0,0,1-13.53,4.08,22.5,22.5,0,0,1-11.56-2.93A20.48,20.48,0,0,1,226,86.19a25.75,25.75,0,0,1-2.85-12.34A25.75,25.75,0,0,1,226,61.51Z"/><path class="cls-1" d="M283.61,94.44a21,21,0,0,1-8.17-8.25,24.9,24.9,0,0,1-3-12.34,24.4,24.4,0,0,1,3-12.3,21.13,21.13,0,0,1,8.34-8.25,25.53,25.53,0,0,1,23.6,0,21.07,21.07,0,0,1,8.34,8.25,24.4,24.4,0,0,1,3.05,12.3,23.94,23.94,0,0,1-3.13,12.3,21.63,21.63,0,0,1-8.55,8.29,24.53,24.53,0,0,1-11.92,2.93A23.24,23.24,0,0,1,283.61,94.44Zm18.45-7a13.23,13.23,0,0,0,5.16-5.2,16.73,16.73,0,0,0,2-8.42,17.16,17.16,0,0,0-1.9-8.38,12.92,12.92,0,0,0-5-5.16,13.8,13.8,0,0,0-6.76-1.73,13.57,13.57,0,0,0-6.73,1.73,12.44,12.44,0,0,0-4.91,5.16A17.74,17.74,0,0,0,282,73.85q0,7.35,3.76,11.35a12.39,12.39,0,0,0,9.45,4A14.07,14.07,0,0,0,302.06,87.47Z"/><path class="cls-1" d="M327.56,61.55a20.76,20.76,0,0,1,18.7-11.14,21.39,21.39,0,0,1,8.79,1.94,17.93,17.93,0,0,1,6.89,5.16v-22h9.49V96.63h-9.49V89.78a17.58,17.58,0,0,1-6.4,5.45,19.83,19.83,0,0,1-9.37,2.14,20.32,20.32,0,0,1-10.85-3,21.28,21.28,0,0,1-7.76-8.42,25.87,25.87,0,0,1-2.85-12.26A25.15,25.15,0,0,1,327.56,61.55ZM360,65.68a13.7,13.7,0,0,0-5.08-5.29,13.35,13.35,0,0,0-6.76-1.81,13.34,13.34,0,0,0-11.85,7,16.3,16.3,0,0,0-1.94,8.13,17,17,0,0,0,1.94,8.26,13.66,13.66,0,0,0,5.12,5.41,13.35,13.35,0,0,0,13.49,0A13.55,13.55,0,0,0,360,82.06a16.72,16.72,0,0,0,1.94-8.21A16.48,16.48,0,0,0,360,65.68Z"/><path class="cls-1" d="M424.84,77.4H390.09a12.6,12.6,0,0,0,4,8.75,12.77,12.77,0,0,0,8.92,3.3q7.59,0,10.73-6.36h10.15a20.52,20.52,0,0,1-7.47,10.28,21.93,21.93,0,0,1-13.41,4,23.13,23.13,0,0,1-11.68-2.93,20.78,20.78,0,0,1-8.09-8.25,25.1,25.1,0,0,1-2.93-12.34,25.86,25.86,0,0,1,2.84-12.34,20,20,0,0,1,8-8.21,23.8,23.8,0,0,1,11.85-2.89,23.17,23.17,0,0,1,11.47,2.8,19.84,19.84,0,0,1,7.84,7.89,23.72,23.72,0,0,1,2.81,11.68A29.5,29.5,0,0,1,424.84,77.4Zm-9.5-7.59a10.69,10.69,0,0,0-3.71-8.34,13.29,13.29,0,0,0-9-3.14,12.05,12.05,0,0,0-8.33,3.1,12.92,12.92,0,0,0-4.13,8.38Z"/><path class="cls-1" d="M471.18,52.51a20.37,20.37,0,0,1,9.29-2.1,20.89,20.89,0,0,1,10.89,2.89A20.25,20.25,0,0,1,499,61.51a25.73,25.73,0,0,1,2.81,12.17A26.21,26.21,0,0,1,499,85.94a20.91,20.91,0,0,1-7.72,8.42,20.32,20.32,0,0,1-10.85,3,20.57,20.57,0,0,1-9.37-2.06A18.08,18.08,0,0,1,464.62,90v6.6h-9.41V35.55h9.41V57.92A18,18,0,0,1,471.18,52.51Zm19.15,13a13.34,13.34,0,0,0-5.12-5.2,13.76,13.76,0,0,0-6.81-1.77,13.45,13.45,0,0,0-6.72,1.81,13.59,13.59,0,0,0-5.12,5.29,16.48,16.48,0,0,0-1.94,8.17,16.72,16.72,0,0,0,1.94,8.21,13.41,13.41,0,0,0,18.65,5.29,13.66,13.66,0,0,0,5.12-5.41,17,17,0,0,0,1.94-8.26A16.3,16.3,0,0,0,490.33,65.55Z"/><path class="cls-1" d="M525.74,52.35a16.27,16.27,0,0,1,8.13-1.94v9.74h-2.39q-5.54,0-8.38,2.8t-2.85,9.74V96.63h-9.41V51.15h9.41v6.6A14.81,14.81,0,0,1,525.74,52.35Z"/><path class="cls-1" d="M541.92,61.55a20.75,20.75,0,0,1,18.61-11.14,19.89,19.89,0,0,1,9.37,2.1,19.14,19.14,0,0,1,6.4,5.24v-6.6h9.49V96.63H576.3V89.86a18.7,18.7,0,0,1-6.52,5.37,21.14,21.14,0,0,1-20.14-.87,21.33,21.33,0,0,1-7.72-8.42,25.87,25.87,0,0,1-2.85-12.26A25.15,25.15,0,0,1,541.92,61.55Zm32.44,4.13a13.77,13.77,0,0,0-5.08-5.29,13.39,13.39,0,0,0-6.77-1.81,13.58,13.58,0,0,0-6.77,1.77,13.43,13.43,0,0,0-5.07,5.2,16.2,16.2,0,0,0-1.94,8.13,16.89,16.89,0,0,0,1.94,8.26,13.66,13.66,0,0,0,5.12,5.41,13.34,13.34,0,0,0,13.49,0,13.62,13.62,0,0,0,5.08-5.33,16.72,16.72,0,0,0,1.94-8.21A16.48,16.48,0,0,0,574.36,65.68Z"/><path class="cls-1" d="M598.33,43.39a6,6,0,0,1,4.3-10.32,5.73,5.73,0,0,1,4.21,1.74,6.18,6.18,0,0,1,0,8.58,5.73,5.73,0,0,1-4.21,1.74A5.84,5.84,0,0,1,598.33,43.39Zm8.92,7.76V96.63h-9.41V51.15Z"/><path class="cls-1" d="M651.86,52.64a15.79,15.79,0,0,1,6.65,6.6,21.81,21.81,0,0,1,2.39,10.57V96.63h-9.33V71.21q0-6.1-3.05-9.37a10.9,10.9,0,0,0-8.34-3.26,11,11,0,0,0-8.38,3.26q-3.09,3.25-3.09,9.37V96.63H619.3V51.15h9.41v5.2a15.53,15.53,0,0,1,5.9-4.37,18.83,18.83,0,0,1,7.64-1.57A20.33,20.33,0,0,1,651.86,52.64Z"/><g id="dark_logo" data-name="dark logo"><path class="cls-1" d="M35.32,63.72a6,6,0,0,0-2.53-5.38,7.5,7.5,0,0,0-6-.78l-7.48,1.67v12.9L26.8,72a8.79,8.79,0,0,0,6-2.27A7.84,7.84,0,0,0,35.32,63.72Z"/><path class="cls-1" d="M10.34,47.68v52.4l39.3,22.68V24.93Zm24.75,48.5L25.65,76.45l-6.33-.27v15.5L15.18,90.5V56.37L26.8,53a17.18,17.18,0,0,1,7.76-.59,10.5,10.5,0,0,1,6.19,3.26,10.22,10.22,0,0,1,2.43,7,12.63,12.63,0,0,1-3.43,8.81,15.37,15.37,0,0,1-8.1,4.54L44.12,98.76Z"/><path class="cls-1" d="M105.41,72.84a7.22,7.22,0,0,0,4.23-2.49,6.9,6.9,0,0,0,1.43-4.47A9.45,9.45,0,0,0,108.23,59c-2-2.07-5-3.61-9.11-4.62l-16.4-4v47L100,93.15c4.06-1,7-2.59,9-4.77a10.33,10.33,0,0,0,2.82-7.28,8.3,8.3,0,0,0-1.63-5.27A8.61,8.61,0,0,0,105.41,72.84ZM91,57.52,99.12,59a9.76,9.76,0,0,1,5.24,2.44,5.76,5.76,0,0,1,1.76,4.27,4.5,4.5,0,0,1-1.76,3.82,8.07,8.07,0,0,1-5.31,1.27l-8-.31ZM105.14,86a10.52,10.52,0,0,1-5.7,2.66L91,90.23V75.46l8.42-.15a8.13,8.13,0,0,1,5.7,1.68A5.6,5.6,0,0,1,107,81.43,6.2,6.2,0,0,1,105.14,86Z"/><path class="cls-1" d="M123.27,32.62,69.08,1.33a10,10,0,0,0-9.93,0L0,35.48v74l59.15,34.15a10,10,0,0,0,9.93,0l54.19-31.29a9.92,9.92,0,0,0,5-8.59V41.21A9.92,9.92,0,0,0,123.27,32.62ZM60,140.75l-2.76-1.38-53.77-31V38L57.91,6.32,60,4.94ZM116.51,98a5.2,5.2,0,0,1-2.72,4.58l-28.9,15.72a5.22,5.22,0,0,1-7.7-4.57L77,35.33a5.21,5.21,0,0,1,7.78-4.55l29.13,16.46a5.19,5.19,0,0,1,2.65,4.53Z"/></g></svg>