<svg id="Layer_1" data-name="Layer 1" xmlns="http://www.w3.org/2000/svg" viewBox="0 0 201.75 228.13"><defs><style>.cls-1{fill:#02307b;}</style></defs><title>logo blue</title><g id="dark_logo" data-name="dark logo"><path class="cls-1" d="M55.57,100.26c0-3.87-1.36-6.71-4-8.47s-5.7-2.06-9.43-1.23L30.4,93.19v20.3l11.76-.25a13.82,13.82,0,0,0,9.43-3.59A12.31,12.31,0,0,0,55.57,100.26Z"/><path class="cls-1" d="M16.27,75v82.43L78.1,193.14V39.22Zm38.94,76.3-14.85-31-10-.42v24.39l-6.51-1.86V88.69l18.27-5.25a27,27,0,0,1,12.21-.92,16.55,16.55,0,0,1,9.74,5.13,16.1,16.1,0,0,1,3.83,11.1,19.88,19.88,0,0,1-5.4,13.85,24.14,24.14,0,0,1-12.74,7.14l19.62,35.64Z"/><path class="cls-1" d="M165.84,114.6a11.39,11.39,0,0,0,6.66-3.92,10.88,10.88,0,0,0,2.24-7,14.82,14.82,0,0,0-4.47-10.84c-3.19-3.25-7.85-5.68-14.33-7.26l-25.8-6.3V153.2l27.21-6.64c6.39-1.56,11-4.08,14.18-7.52A16.16,16.16,0,0,0,176,127.6a13.06,13.06,0,0,0-2.56-8.3A13.6,13.6,0,0,0,165.84,114.6ZM143.21,90.5l12.73,2.37a15.42,15.42,0,0,1,8.25,3.85,9,9,0,0,1,2.76,6.71,7.1,7.1,0,0,1-2.76,6c-1.92,1.46-4.67,2.14-8.35,2L143.21,111Zm22.2,44.8c-2.06,2.06-5,3.46-9,4.2L143.21,142V118.73l13.24-.24c4-.07,6.9.82,9,2.63a8.82,8.82,0,0,1,3,7A9.71,9.71,0,0,1,165.41,135.3Z"/><path class="cls-1" d="M193.94,51.32,108.68,2.09a15.6,15.6,0,0,0-15.61,0L0,55.82V172.31L93.07,226a15.6,15.6,0,0,0,15.61,0l85.26-49.23a15.61,15.61,0,0,0,7.81-13.52V64.84A15.61,15.61,0,0,0,193.94,51.32ZM94.37,221.45,90,219.28,5.42,170.47V59.83L91.11,9.94l3.26-2.17Zm88.94-67.22a8.21,8.21,0,0,1-4.28,7.21l-45.47,24.72A8.2,8.2,0,0,1,121.44,179l-.37-123.39a8.21,8.21,0,0,1,12.24-7.17l45.83,25.9a8.18,8.18,0,0,1,4.17,7.14Z"/></g></svg>